<svg width="14" height="14" fill="none" xmlns="http://www.w3.org/2000/svg"><path fill-rule="evenodd" clip-rule="evenodd" d="M4 5.5a1.125 1.125 0 100-2.25A1.125 1.125 0 004 5.5zm7.5 6.75H2.92l5.254-4.384a.582.582 0 01.7 0l3.376 2.88v.754a.75.75 0 01-.75.75zm-9-10.5h9a.75.75 0 01.75.75v6.273L9.848 6.724c-.743-.631-1.905-.631-2.64-.005L1.75 11.274V2.5a.75.75 0 01.75-.75zm9-1.5h-9C1.26.25.25 1.26.25 2.5v9c0 1.24 1.01 2.25 2.25 2.25h9c1.24 0 2.25-1.01 2.25-2.25v-9c0-1.24-1.01-2.25-2.25-2.25z" fill="#BEBEC6"/></svg>