<svg width="14" height="14" fill="none" xmlns="http://www.w3.org/2000/svg"><path fill-rule="evenodd" clip-rule="evenodd" d="M12.25 11.692c0 .307-.25.558-.558.558h-.942v-1.5h1.5v.942zm-10.5 0v-.942h1.5v1.5h-.942a.559.559 0 01-.558-.558zm.558-9.942h.942v1.5h-1.5v-.942c0-.308.25-.558.558-.558zm9.942.558v.942h-1.5v-1.5h.942c.307 0 .558.25.558.558zm-1.5 6.942h1.5v-1.5h-1.5v1.5zm0-3h1.5v-1.5h-1.5v1.5zm-6 6h4.5V1.75h-4.5v10.5zm-3-3h1.5v-1.5h-1.5v1.5zm0-3h1.5v-1.5h-1.5v1.5zm9.942-6H2.308A2.06 2.06 0 00.25 2.308v9.384a2.06 2.06 0 002.058 2.058h9.384a2.06 2.06 0 002.058-2.058V2.308A2.06 2.06 0 0011.692.25z" fill="#BEBEC6"/></svg>