<svg width="19" height="19" fill="none" xmlns="http://www.w3.org/2000/svg"><path fill-rule="evenodd" clip-rule="evenodd" d="M2.59 19h13.82A2.59 2.59 0 0019 16.41V7.772a2.59 2.59 0 00-2.59-2.591h-1.728V2.59A2.59 2.59 0 0012.09 0H6.909a2.59 2.59 0 00-2.59 2.59v2.592H2.59A2.59 2.59 0 000 7.772v8.637A2.59 2.59 0 002.59 19zM6.046 2.59c0-.476.387-.863.864-.863h5.182c.477 0 .864.387.864.864v2.59h-6.91v-2.59zM1.727 7.774c0-.477.387-.864.864-.864h13.818c.477 0 .864.387.864.864v8.636a.864.864 0 01-.864.864H2.591a.864.864 0 01-.864-.864V7.773z" fill="#A6A6B4"/><path fill-rule="evenodd" clip-rule="evenodd" d="M8.68 13.145a1.01 1.01 0 00-.044.233v2.59a.864.864 0 101.728 0V13.3a2.591 2.591 0 10-1.667-.155H8.68zm1.07-3.222a.864.864 0 110 1.727.864.864 0 010-1.727z" fill="#A6A6B4"/></svg>